<svg xmlns="http://www.w3.org/2000/svg" xmlns:xlink="http://www.w3.org/1999/xlink" version="1.1" x="0px" y="0px" viewBox="0 0 100 125" enable-background="new 0 0 100 100" xml:space="preserve"><g><path fill="#000000" d="M18.17,26.274c-2.169,0-3.943,1.766-3.943,3.924v11.156c0,2.158,1.774,3.924,3.943,3.924H29.1   c2.169,0,3.943-1.766,3.943-3.924V30.198c0-2.158-1.774-3.924-3.943-3.924H18.17L18.17,26.274z M41.353,26.274   c-2.169,0-3.943,1.766-3.943,3.924v11.156c0,2.158,1.774,3.924,3.943,3.924h10.93c2.169,0,3.943-1.766,3.943-3.924V30.198   c0-2.158-1.774-3.924-3.943-3.924H41.353L41.353,26.274z M64.563,26.274c-2.197,0-4,1.766-4,3.924v11.156   c0,2.158,1.803,3.924,4,3.924h10.9c2.169,0,3.972-1.766,3.972-3.924V30.198c0-2.158-1.803-3.924-3.972-3.924H64.563L64.563,26.274z    M18.17,27.844H29.1c1.324,0,2.366,1.037,2.366,2.354v11.156c0,1.289-1.042,2.326-2.366,2.326H18.17   c-1.323,0-2.365-1.037-2.365-2.326V30.198C15.805,28.88,16.847,27.844,18.17,27.844L18.17,27.844z M41.353,27.844h10.93   c1.323,0,2.366,1.037,2.366,2.354v11.156c0,1.289-1.043,2.326-2.366,2.326h-10.93c-1.324,0-2.366-1.037-2.366-2.326V30.198   C38.986,28.88,40.028,27.844,41.353,27.844L41.353,27.844z M64.563,27.844h10.9c1.324,0,2.366,1.037,2.366,2.354v11.156   c0,1.289-1.042,2.326-2.366,2.326h-10.9c-1.324,0-2.395-1.037-2.395-2.326V30.198C62.169,28.88,63.239,27.844,64.563,27.844   L64.563,27.844z M18.17,48.389c-2.169,0-3.943,1.766-3.943,3.924v11.156c0,2.158,1.774,3.924,3.943,3.924H29.1   c2.169,0,3.943-1.766,3.943-3.924V52.313c0-2.158-1.774-3.924-3.943-3.924H18.17L18.17,48.389z M41.353,48.389   c-2.169,0-3.943,1.766-3.943,3.924v11.156c0,2.158,1.774,3.924,3.943,3.924h10.93c2.169,0,3.943-1.766,3.943-3.924V52.313   c0-2.158-1.774-3.924-3.943-3.924H41.353L41.353,48.389z M64.563,48.389c-2.197,0-3.972,1.766-3.972,3.924v11.156   c0,2.158,1.774,3.924,3.972,3.924h4.535c0.422,0,0.816-0.365,0.816-0.785s-0.395-0.813-0.816-0.813h-4.535   c-1.324,0-2.366-1.01-2.366-2.326V52.313c0-1.318,1.042-2.354,2.366-2.354h10.929c1.324,0,2.338,1.037,2.338,2.354v4.766   c0,0.42,0.395,0.813,0.817,0.813c0.395,0,0.788-0.393,0.788-0.813v-4.766c0-2.158-1.774-3.924-3.943-3.924H64.563L64.563,48.389z    M18.17,49.958H29.1c1.324,0,2.366,1.037,2.366,2.354v11.156c0,1.316-1.042,2.326-2.366,2.326H18.17   c-1.323,0-2.365-1.01-2.365-2.326V52.313C15.805,50.995,16.847,49.958,18.17,49.958L18.17,49.958z M41.353,49.958h10.93   c1.323,0,2.366,1.037,2.366,2.354v11.156c0,1.316-1.043,2.326-2.366,2.326h-10.93c-1.324,0-2.366-1.01-2.366-2.326V52.313   C38.986,50.995,40.028,49.958,41.353,49.958L41.353,49.958z M78.534,59.488c-0.394,0.027-0.704,0.42-0.704,0.813v5.494h-5.549   c-0.028,0-0.057,0-0.085,0c-0.422,0.027-0.76,0.42-0.76,0.84c0.027,0.42,0.422,0.785,0.845,0.758h5.549v5.521   c0,0.42,0.395,0.813,0.817,0.813c0.395,0,0.788-0.393,0.788-0.813v-5.521h5.521c0.422,0,0.816-0.365,0.816-0.785   s-0.395-0.813-0.816-0.813h-5.521v-5.494C79.436,59.852,78.985,59.432,78.534,59.488L78.534,59.488z"/></g><text x="0" y="115" fill="#000000" font-size="5px" font-weight="bold" font-family="'Helvetica Neue', Helvetica, Arial-Unicode, Arial, Sans-serif">Created by artworkbean</text><text x="0" y="120" fill="#000000" font-size="5px" font-weight="bold" font-family="'Helvetica Neue', Helvetica, Arial-Unicode, Arial, Sans-serif">from the Noun Project</text></svg>