<?xml version="1.0" encoding="utf-8"?>
<!-- Generator: Adobe Illustrator 19.2.1, SVG Export Plug-In . SVG Version: 6.00 Build 0)  -->
<svg version="1.1" id="Ebene_1" xmlns="http://www.w3.org/2000/svg" xmlns:xlink="http://www.w3.org/1999/xlink" x="0px" y="0px"
	 viewBox="0 0 960 560" style="enable-background:new 0 0 960 560;" xml:space="preserve">
<g>
	<path d="M126.2,16.2c-24.1,0-43.8,19.6-43.8,43.6v124c0,24,19.7,43.6,43.8,43.6h121.5c24.1,0,43.8-19.6,43.8-43.6v-124
		c0-24-19.7-43.6-43.8-43.6H126.2L126.2,16.2z M383.9,16.2c-24.1,0-43.8,19.6-43.8,43.6v124c0,24,19.7,43.6,43.8,43.6h121.5
		c24.1,0,43.8-19.6,43.8-43.6v-124c0-24-19.7-43.6-43.8-43.6H383.9L383.9,16.2z M641.9,16.2c-24.4,0-44.5,19.6-44.5,43.6v124
		c0,24,20,43.6,44.5,43.6h121.2c24.1,0,44.2-19.6,44.2-43.6v-124c0-24-20-43.6-44.2-43.6H641.9L641.9,16.2z M126.2,33.7h121.5
		c14.7,0,26.3,11.5,26.3,26.2v124c0,14.3-11.6,25.9-26.3,25.9H126.2c-14.7,0-26.3-11.5-26.3-25.9v-124
		C99.9,45.2,111.4,33.7,126.2,33.7L126.2,33.7z M383.9,33.7h121.5c14.7,0,26.3,11.5,26.3,26.2v124c0,14.3-11.6,25.9-26.3,25.9H383.9
		c-14.7,0-26.3-11.5-26.3-25.9v-124C357.6,45.2,369.1,33.7,383.9,33.7L383.9,33.7z M641.9,33.7h121.2c14.7,0,26.3,11.5,26.3,26.2
		v124c0,14.3-11.6,25.9-26.3,25.9H641.9c-14.7,0-26.6-11.5-26.6-25.9v-124C615.3,45.2,627.2,33.7,641.9,33.7L641.9,33.7z
		 M126.2,262.1c-24.1,0-43.8,19.6-43.8,43.6v124c0,24,19.7,43.6,43.8,43.6h121.5c24.1,0,43.8-19.6,43.8-43.6v-124
		c0-24-19.7-43.6-43.8-43.6H126.2L126.2,262.1z M383.9,262.1c-24.1,0-43.8,19.6-43.8,43.6v124c0,24,19.7,43.6,43.8,43.6h121.5
		c24.1,0,43.8-19.6,43.8-43.6v-124c0-24-19.7-43.6-43.8-43.6H383.9L383.9,262.1z M641.9,262.1c-24.4,0-44.2,19.6-44.2,43.6v124
		c0,24,19.7,43.6,44.2,43.6h50.4c4.7,0,9.1-4.1,9.1-8.7c0-4.7-4.4-9-9.1-9h-50.4c-14.7,0-26.3-11.2-26.3-25.9v-124
		c0-14.7,11.6-26.2,26.3-26.2h121.5c14.7,0,26,11.5,26,26.2v53c0,4.7,4.4,9,9.1,9c4.4,0,8.8-4.4,8.8-9v-53c0-24-19.7-43.6-43.8-43.6
		H641.9L641.9,262.1z M126.2,279.5h121.5c14.7,0,26.3,11.5,26.3,26.2v124c0,14.6-11.6,25.9-26.3,25.9H126.2
		c-14.7,0-26.3-11.2-26.3-25.9v-124C99.9,291.1,111.4,279.5,126.2,279.5L126.2,279.5z M383.9,279.5h121.5
		c14.7,0,26.3,11.5,26.3,26.2v124c0,14.6-11.6,25.9-26.3,25.9H383.9c-14.7,0-26.3-11.2-26.3-25.9v-124
		C357.6,291.1,369.1,279.5,383.9,279.5L383.9,279.5z M797.2,385.5c-4.4,0.3-7.8,4.7-7.8,9v61.1h-61.7c-0.3,0-0.6,0-0.9,0
		c-4.7,0.3-8.4,4.7-8.4,9.3c0.3,4.7,4.7,8.7,9.4,8.4h61.7v61.4c0,4.7,4.4,9,9.1,9c4.4,0,8.8-4.4,8.8-9v-61.4h61.4
		c4.7,0,9.1-4.1,9.1-8.7c0-4.7-4.4-9-9.1-9h-61.4v-61.1C807.2,389.5,802.2,384.8,797.2,385.5L797.2,385.5z"/>
</g>
</svg>
